<?xml version="1.0" encoding="utf-8"?>
<!-- Generator: Adobe Illustrator 17.0.0, SVG Export Plug-In . SVG Version: 6.00 Build 0)  -->
<!DOCTYPE svg PUBLIC "-//W3C//DTD SVG 1.1//EN" "http://www.w3.org/Graphics/SVG/1.1/DTD/svg11.dtd">
<svg version="1.1" id="Layer_1" xmlns="http://www.w3.org/2000/svg" xmlns:xlink="http://www.w3.org/1999/xlink" x="0px" y="0px"
	 width="272.642px" height="225.472px" viewBox="0 0 272.642 225.472" enable-background="new 0 0 272.642 225.472"
	 xml:space="preserve">
<path fill-rule="evenodd" clip-rule="evenodd" fill="#010101" d="M65.073,169.688h9.9l-5-12.898L65.073,169.688z M99.172,168.438
	c-1.166-0.766-2.9-1.148-5.2-1.148h-7.15v9.85h6.9c2.566,0,4.433-0.451,5.6-1.35c1.166-0.834,1.75-2.084,1.75-3.75
	C101.073,170.372,100.439,169.173,99.172,168.438z M146.422,30.989l-129.8-14l14,189.551l224.5-56.25L146.422,30.989z
	 M11.873,11.989l136.65,14.9L263.223,152.79L26.623,211.989L11.873,11.989z M205.272,126.439c1.567-1.333,3.65-2,6.249-2
	c2.834,0,5.084,0.667,6.75,2c1.5,1.267,2.317,3.051,2.451,5.351h-2.201c-0.166-1.733-0.833-3.05-2-3.95
	c-1.166-0.934-2.833-1.4-5-1.4c-1.933,0-3.482,0.467-4.649,1.4c-1,0.833-1.5,1.95-1.5,3.35c0,1.567,0.75,2.684,2.25,3.351
	c0.833,0.5,2.55,0.967,5.149,1.398c2.734,0.568,4.684,1.184,5.851,1.852c1.733,1.1,2.601,2.816,2.601,5.148
	c0,2.068-0.784,3.768-2.351,5.102c-1.566,1.5-3.851,2.25-6.851,2.25c-3.333,0-5.833-0.783-7.499-2.352
	c-1.433-1.432-2.267-3.566-2.5-6.398h2.5c0.067,2.1,0.684,3.732,1.85,4.898c1.267,1.168,3.184,1.75,5.75,1.75
	c2.267,0,4.017-0.5,5.25-1.5c1.101-1,1.649-2.25,1.649-3.75c0-1.666-0.799-2.883-2.399-3.648c-0.833-0.5-2.533-1-5.101-1.5
	c-2.766-0.5-4.683-1.084-5.749-1.75c-1.767-1-2.65-2.618-2.65-4.851C203.123,129.289,203.839,127.705,205.272,126.439z
	 M180.373,147.29c-1.9-2.066-2.85-5.102-2.85-9.102v-1.398c0-4.001,1-7.067,3-9.201c1.9-2.1,4.567-3.15,8-3.15
	c2.9,0,5.233,0.717,7,2.15c1.733,1.5,2.767,3.65,3.1,6.45h-2.25c-0.333-2.134-1.167-3.75-2.5-4.851
	c-1.333-1.166-3.117-1.75-5.35-1.75c-2.767,0-4.9,0.917-6.4,2.75c-1.566,1.733-2.35,4.267-2.35,7.601v1.25
	c0,3.332,0.75,5.832,2.25,7.5c1.5,1.666,3.667,2.5,6.5,2.5c2.333,0,4.2-0.617,5.6-1.852c1.333-1.266,2.133-2.932,2.4-5h2.35
	c-0.333,2.834-1.367,5.035-3.1,6.602c-1.833,1.666-4.3,2.5-7.4,2.5C184.873,150.29,182.206,149.29,180.373,147.29z M166.922,124.839
	v2h-8.15v22.951h-2.25v-22.951h-7.75v-2H166.922z M170.672,124.839h2.25v24.951h-2.25V124.839z M114.672,111.089h10l-5.1-12.9
	L114.672,111.089z M112.323,124.839h2.25v22.849h13.5v2.102h-15.75V124.839z M125.823,124.839h2.6l7.4,12.951l7.7-12.951h2.65
	l-9.25,15.201v9.75h-2.35v-9.852L125.823,124.839z M97.573,127.439l-4.85,13h9.95L97.573,127.439z M84.723,154.188h9.25
	c3.066,0,5.3,0.535,6.7,1.602c1.434,1,2.15,2.549,2.15,4.648c0,3.168-1.5,5.117-4.5,5.852c1.666,0.332,2.916,1,3.75,2
	c0.833,0.934,1.25,2.217,1.25,3.85c0,4.6-3.117,6.9-9.35,6.9h-9.25V154.188z M93.973,156.04h-7.15v9.398h7.15
	c4.4,0,6.6-1.633,6.6-4.898c0-1.5-0.5-2.617-1.5-3.352C97.973,156.423,96.272,156.04,93.973,156.04z M68.823,154.188h2.25l10,24.852
	h-2.35l-2.9-7.4h-11.5l-2.85,7.4h-2.25L68.823,154.188z M63.973,124.839h2.25l13.6,19.451l1.25,2.148v-21.599h2.15v24.951h-2
	l-14.15-20.101l-0.85-1.75v21.851h-2.25V124.839z M96.422,124.839h2.25l10,24.951h-2.35l-2.9-7.5h-11.45l-2.75,7.5h-2.4
	L96.422,124.839z M97.422,97.339h-6.95v9.35h7.1c4.4,0,6.6-1.583,6.6-4.75c0-1.5-0.533-2.617-1.6-3.35
	C101.473,97.756,99.756,97.339,97.422,97.339z M97.422,108.589h-6.95v9.85h6.85c2.5,0,4.366-0.416,5.6-1.25
	c1.1-0.833,1.65-2.083,1.65-3.75c0-1.666-0.584-2.916-1.75-3.75C101.556,108.956,99.756,108.589,97.422,108.589z M64.723,95.439h9.6
	c3.1,0,5.4,0.633,6.9,1.9c1.4,1.167,2.1,2.917,2.1,5.25c0,3.5-1.7,5.667-5.1,6.5c1.566,0.334,2.733,0.95,3.5,1.85
	c0.666,0.934,1,2.351,1,4.25v4c0,0.5,0.166,0.917,0.5,1.25h-2.4c-0.334-0.333-0.5-0.75-0.5-1.25v-4c0-1.899-0.45-3.233-1.35-4
	c-0.934-0.733-2.567-1.1-4.9-1.1h-7.1v10.35h-2.25V95.439z M66.973,97.439v10.75h7.25c2.166,0,3.833-0.45,5-1.35
	c1.166-0.933,1.75-2.316,1.75-4.15c0-3.5-2.217-5.25-6.65-5.25H66.973z M63.473,65.989h4.75v25.1h-4.75V65.989z M87.473,77.839
	c0-2.566-0.633-4.517-1.9-5.85c-1.167-1.333-2.75-2-4.75-2h-4v17.1h4.15c2,0,3.583-0.666,4.75-2c1.166-1.333,1.75-3.283,1.75-5.85
	V77.839z M88.823,68.839c2.166,2,3.25,4.883,3.25,8.65v2.1c0,3.767-1.034,6.65-3.1,8.65c-1.934,1.9-4.517,2.85-7.75,2.85h-9v-25.1
	h8.85C84.239,65.989,86.823,66.939,88.823,68.839z M140.922,91.089v-25.1h17.25v4h-12.75v6.5h10.75v4h-10.75v6.5h13.25v4.1H140.922z
	 M134.323,95.439h2.25l13.6,19.5l1.25,2.15l-0.15-0.5v-21.15h2.25v25h-2.1l-15-21.75v21.75h-2.1V95.439z M118.422,95.439h2.25l10,25
	h-2.35l-2.9-7.35h-11.5l-2.75,7.35h-2.35L118.422,95.439z M110.922,91.089l-2-5.6h-9.85l-2,5.6h-4.6l8.95-25.1h4.9l9.25,25.1
	H110.922z M104.323,97.089c1.333,1,2,2.533,2,4.6c0,3.167-1.5,5.133-4.5,5.9c1.733,0.4,3.017,1.067,3.85,2
	c0.834,1,1.25,2.333,1.25,4c0,4.566-3.116,6.85-9.35,6.85h-9.35v-25h9.2C100.522,95.439,102.823,95.989,104.323,97.089z
	 M107.573,81.589l-3.4-9.85l-0.25-1.4l-0.25,1.4l-3.35,9.85H107.573z M137.672,77.489v2.1c0,3.767-1,6.65-3,8.65
	c-2,1.9-4.616,2.85-7.85,2.85h-9v-25.1h8.85c3.267,0,5.85,0.95,7.75,2.85C136.589,70.839,137.672,73.722,137.672,77.489z
	 M133.073,79.239v-1.4c0-2.566-0.583-4.517-1.75-5.85c-1.167-1.333-2.8-2-4.9-2h-4v17.1h4.15c2,0,3.583-0.666,4.75-2
	C132.489,83.756,133.073,81.806,133.073,79.239z M116.323,42.389l-3.4,9.85h7.25l-3.35-9.85l-0.25-1.4L116.323,42.389z
	 M121.573,56.089h-9.9l-2,5.65h-4.6l9.1-25.1h4.75l9.25,25.1h-4.6L121.573,56.089z M85.323,36.639h4.9l6.35,18.6l6.1-18.6h5
	l-8.85,25.1h-4.6L85.323,36.639z M74.073,36.239c3.267,0,5.85,1,7.75,3c2,2.167,3,5.167,3,9v2.1c0,3.934-1,6.934-3,9
	c-1.834,2-4.45,3-7.85,3c-3.5,0-6.167-1-8-3c-1.834-2-2.75-5-2.75-9v-2.1c0-3.833,1-6.833,3-9
	C68.123,37.239,70.739,36.239,74.073,36.239z M78.573,42.389c-1-1.333-2.5-2-4.5-2c-2.067,0-3.6,0.7-4.6,2.1
	c-1,1.333-1.5,3.3-1.5,5.9v1.85c0,5.233,2.033,7.85,6.1,7.85c2,0,3.5-0.667,4.5-2s1.5-3.283,1.5-5.85v-1.75
	C80.073,45.822,79.573,43.789,78.573,42.389z M40.873,154.188h2.25v22.701h13.45v2.15h-15.7V154.188z M44.473,140.438h9.85l-5.1-13
	L44.473,140.438z M48.123,124.839h2.25l9.95,24.951h-2.25l-3-7.5h-11.45l-2.75,7.5h-2.25L48.123,124.839z M57.073,95.439h2.25v14
	c0,3.933-0.784,6.85-2.35,8.75c-1.5,1.834-3.833,2.75-7,2.75c-3.333,0-5.75-0.916-7.25-2.75c-1.5-1.833-2.25-4.75-2.25-8.75v-14h2.4
	v14c0,3.266,0.533,5.65,1.6,7.15c1.1,1.5,2.933,2.25,5.5,2.25c2.5,0,4.333-0.75,5.5-2.25c1.066-1.5,1.6-3.884,1.6-7.15V95.439z
	 M41.973,68.589c1.933-2.066,4.6-3.1,8-3.1c3.167,0,5.617,0.833,7.35,2.5c1.833,1.567,2.917,3.9,3.25,7h-4.85
	c-0.333-3.5-2.25-5.25-5.75-5.25c-2,0-3.534,0.667-4.6,2c-1.1,1.4-1.65,3.434-1.65,6.1v1.75c0,2.434,0.55,4.317,1.65,5.65
	c1.066,1.333,2.65,2,4.75,2c1.733,0,3.1-0.5,4.1-1.5c0.833-0.833,1.367-2.167,1.6-4h4.9c-0.333,3.233-1.333,5.65-3,7.25
	c-1.833,1.733-4.45,2.6-7.85,2.6c-3.5,0-6.166-1-8-3c-1.833-2-2.75-4.916-2.75-8.75v-2.25
	C39.123,73.689,40.073,70.689,41.973,68.589z M39.973,36.639h4.4l10.7,16.95l0.65,1.65l-0.15-1.75v-16.85h4.4v25.1h-4.25
	l-10.85-17.1l-0.75-1.75l0.25,1.85v17h-4.4V36.639z"/>
</svg>
